<?xml version="1.0" encoding="UTF-8"?>
<svg width="95px" height="95px" viewBox="0 0 95 95" version="1.1" xmlns="http://www.w3.org/2000/svg" xmlns:xlink="http://www.w3.org/1999/xlink">
    <!-- Generator: Sketch 41 (35326) - http://www.bohemiancoding.com/sketch -->
    <title>content_icon_purple_big_default</title>
    <desc>Created with Sketch.</desc>
    <defs>
        <linearGradient x1="50%" y1="0%" x2="50%" y2="98.439493%" id="linearGradient-1">
            <stop stop-color="#9794C8" offset="0%"></stop>
            <stop stop-color="#605AAA" offset="100%"></stop>
        </linearGradient>
    </defs>
    <g id="Page-1" stroke="none" stroke-width="1" fill="none" fill-rule="evenodd">
        <g id="裁判文书1" transform="translate(-236.000000, -340.000000)">
            <g id="content_icon_purple_big_default" transform="translate(236.000000, 340.000000)">
                <circle id="Oval" fill="url(#linearGradient-1)" cx="47.5" cy="47.5" r="47.5"></circle>
                <path d="M27.2034439,23.2653061 C26.0992266,23.2653061 25.2040816,24.1532675 25.2040816,25.2646684 L25.2040816,67.7965561 C25.2040816,68.9007734 26.092043,69.7959184 27.2034439,69.7959184 L69.7353316,69.7959184 C70.8395489,69.7959184 71.7346939,68.907957 71.7346939,67.7965561 L71.7346939,25.2646684 C71.7346939,24.1604511 70.8467325,23.2653061 69.7353316,23.2653061 L27.2034439,23.2653061 Z M32.0272004,29.0816327 C31.4711644,29.0816327 31.0204082,29.5228718 31.0204082,30.0884249 L31.0204082,62.9727996 C31.0204082,63.5288356 31.4616473,63.9795918 32.0272004,63.9795918 L64.9115751,63.9795918 C65.4676111,63.9795918 65.9183673,63.5383527 65.9183673,62.9727996 L65.9183673,30.0884249 C65.9183673,29.5323889 65.4771282,29.0816327 64.9115751,29.0816327 L32.0272004,29.0816327 Z M36.8367347,34.8979592 L36.8367347,43.622449 L45.5612245,43.622449 L45.5612245,34.8979592 L36.8367347,34.8979592 Z M51.377551,34.8979592 L51.377551,43.622449 L60.1020408,43.622449 L60.1020408,34.8979592 L51.377551,34.8979592 Z M36.8367347,49.4387755 L36.8367347,58.1632653 L45.5612245,58.1632653 L45.5612245,49.4387755 L36.8367347,49.4387755 Z M51.377551,49.4387755 L51.377551,58.1632653 L60.1020408,58.1632653 L60.1020408,49.4387755 L51.377551,49.4387755 Z" id="grid-2" fill="#FFFFFF"></path>
            </g>
        </g>
    </g>
</svg>